Coordinates
version=1
nRows=13
nColumns=40
inDegrees=yes

Units are S.I. units (second, meters, Newtons, ...)
Angles are in degrees.

endheader
time	pelvis_tilt	pelvis_list	pelvis_rotation	pelvis_tx	pelvis_ty	pelvis_tz	hip_flexion_r	hip_adduction_r	hip_rotation_r	knee_angle_r	knee_angle_r_beta	ankle_angle_r	subtalar_angle_r	mtp_angle_r	hip_flexion_l	hip_adduction_l	hip_rotation_l	knee_angle_l	knee_angle_l_beta	ankle_angle_l	subtalar_angle_l	mtp_angle_l	lumbar_extension	lumbar_bending	lumbar_rotation	arm_flex_r	arm_add_r	arm_rot_r	elbow_flex_r	pro_sup_r	wrist_flex_r	wrist_dev_r	arm_flex_l	arm_add_l	arm_rot_l	elbow_flex_l	pro_sup_l	wrist_flex_l	wrist_dev_l
     39.17000000	     -5.13012125	     -5.71951104	      2.88959051	      0.93644074	      0.91779773	      0.49779291	     -1.39614589	      5.32059776	    -18.12169712	      9.85861308	      9.85861308	     17.93713707	      5.89301235	     -1.82450296	     32.44150570	     -7.82884623	     -3.21620688	     21.13572931	     21.13572931	      2.53834264	    -10.53169164	      7.78960660	     -7.71321336	      6.53636747	      5.12370595	     44.35331145	    -16.26264282	     -6.50429054	     93.77367650	     44.71850491	      0.00000000	      0.00000000	    -13.53389905	     -6.50163744	     11.94697163	     25.64364561	     43.65758330	      0.00000000	      0.00000000
     39.18285714	     -5.09847482	     -5.64054898	      2.57716638	      0.93763416	      0.91707641	      0.49638926	     -1.88301048	      5.04300143	    -17.79507083	     10.22302402	     10.22302402	     18.24447269	      5.93171778	     -1.89701273	     31.83331878	     -7.71255623	     -3.21121210	     21.86202979	     21.86202979	      2.43640220	    -10.95075057	      7.70462801	     -7.62027202	      6.35532379	      5.15440201	     44.09211255	    -16.12952182	     -6.43628975	     93.98791862	     44.71035091	      0.00000000	      0.00000000	    -13.77081455	     -6.48976155	     11.93084412	     25.54527579	     43.66306198	      0.00000000	      0.00000000
     39.19571429	     -5.21867881	     -5.51428421	      2.35160556	      0.93846876	      0.91623195	      0.49464802	     -1.77527025	      4.55173388	    -17.58631936	     11.40662199	     11.40662199	     18.81092363	      5.67626695	     -1.82614563	     31.47861045	     -7.39555721	     -2.77331698	     22.52753947	     22.52753947	      2.18691118	    -11.98921894	      7.44913937	     -7.50591912	      6.16889772	      5.08403890	     43.51647247	    -16.02598177	     -6.29772216	     95.38560021	     44.67052801	      0.00000000	      0.00000000	    -13.74970991	     -6.47057674	     11.75648012	     25.49079634	     43.73028408	      0.00000000	      0.00000000
     39.20857143	     -5.15950498	     -5.40937374	      2.14957292	      0.93954047	      0.91607313	      0.49284982	     -2.14866529	      4.17845944	    -17.36731065	     12.00414498	     12.00414498	     18.96549750	      5.60486944	     -1.84972424	     30.95687885	     -7.19448298	     -2.63740468	     23.15597580	     23.15597580	      2.34799604	    -12.48168138	      7.24474999	     -7.53281514	      5.98916505	      4.98628930	     42.83280121	    -15.93178815	     -6.21365514	     95.63420304	     44.66040119	      0.00000000	      0.00000000	    -13.63997837	     -6.50726780	     11.69406604	     25.47539046	     43.75317286	      0.00000000	      0.00000000
     39.22142857	     -5.31226856	     -5.22048077	      1.98030408	      0.94021430	      0.91582831	      0.49073112	     -1.84421866	      3.53953915	    -17.21242692	     13.45015173	     13.45015173	     19.32602947	      5.29519032	     -1.91486954	     30.69404285	     -6.80146880	     -2.24381451	     23.66678171	     23.66678171	      2.40442034	    -13.43185691	      7.02022654	     -7.44562386	      5.75218156	      5.00774288	     41.76787007	    -16.07126903	     -6.18542172	     96.75037034	     44.63088019	      0.00000000	      0.00000000	    -13.25021400	     -6.51660268	     11.46293228	     25.42654034	     43.83367149	      0.00000000	      0.00000000
     39.23428571	     -5.35524609	     -5.04913617	      1.86762576	      0.94090864	      0.91608443	      0.48843835	     -1.76219730	      2.94432603	    -17.10193272	     14.66702554	     14.66702554	     19.47340790	      5.12597708	     -2.01320965	     30.34556923	     -6.44645107	     -1.95097258	     24.14081421	     24.14081421	      2.71229998	    -14.12906511	      6.83387820	     -7.48158376	      5.55997873	      5.04591720	     40.50138183	    -16.27382358	     -6.25236679	     97.42751730	     44.61816438	      0.00000000	      0.00000000	    -12.67091577	     -6.56528899	     11.21745594	     25.36369907	     43.92035067	      0.00000000	      0.00000000
     39.24714286	     -5.20791215	     -5.00353739	      1.86050360	      0.94174961	      0.91698472	      0.48595890	     -2.08891414	      2.56579642	    -17.03162102	     15.44588779	     15.44588779	     19.30585647	      4.99938379	     -2.09085414	     29.82238995	     -6.23427678	     -1.72384187	     24.60446661	     24.60446661	      3.24222697	    -14.46451326	      6.59996628	     -7.70796812	      5.53838179	      4.72170962	     39.30623862	    -16.09616322	     -6.11730254	     97.29455689	     44.61520994	      0.00000000	      0.00000000	    -12.09121992	     -6.60284386	     11.16607328	     25.49715540	     43.94514248	      0.00000000	      0.00000000
     39.26000000	     -5.40334782	     -4.72749724	      1.74705925	      0.94208527	      0.91745257	      0.48324752	     -1.38551075	      1.65181414	    -17.01805265	     17.49182857	     17.49182857	     19.31343634	      4.74474945	     -2.71429544	     29.61512460	     -5.75361458	     -1.57034362	     24.93298589	     24.93298589	      3.73007820	    -15.13905260	      6.67708855	     -7.60787699	      5.25800375	      4.80139202	     37.74562669	    -16.43770172	     -6.21213535	     97.49698102	     44.61501941	      0.00000000	      0.00000000	    -11.28317590	     -6.71175677	     10.90738919	     25.56460906	     44.02935007	      0.00000000	      0.00000000
     39.27285714	     -5.42522144	     -4.56304383	      1.71583031	      0.94259993	      0.91844825	      0.48036302	     -1.06021191	      0.92001180	    -17.02019846	     19.14209636	     19.14209636	     19.03590966	      4.62731805	     -3.36426852	     29.18887326	     -5.38294806	     -1.42939122	     25.19096868	     25.19096868	      4.34001385	    -15.54652260	      6.79773934	     -7.69976250	      5.14301043	      4.78702650	     36.02464197	    -16.64291676	     -6.30360293	     97.32237891	     44.62502422	      0.00000000	      0.00000000	    -10.37722726	     -6.81003931	     10.65930027	     25.72316076	     44.10957773	      0.00000000	      0.00000000
     39.28571429	     -5.45186124	     -4.39416986	      1.70697692	      0.94311216	      0.91954982	      0.47732201	     -0.70894593	      0.14374808	    -17.11685188	     20.74511058	     20.74511058	     17.95638618	      4.42845421	     -6.05552515	     28.77116096	     -4.98268282	     -1.27026038	     25.48426557	     25.48426557	      5.43243186	    -15.77093402	      8.07871192	     -7.80079374	      5.04086992	      5.17411545	     33.72969849	    -17.02556839	     -7.16639888	     97.58826934	     44.67811829	      0.00000000	      0.00000000	     -9.04295522	     -6.76630340	      9.59113524	     25.56407727	     44.41973183	      0.00000000	      0.00000000
     39.29857143	     -5.45594735	     -4.28174181	      1.65747718	      0.94361869	      0.92069470	      0.47431671	     -0.14619485	     -0.61774834	    -16.96582106	     22.82180413	     22.82180413	     17.43263906	      4.11964001	     -6.88130240	     28.20281358	     -4.70298926	     -1.34702094	     25.53561880	     25.53561880	      6.01676537	    -15.85340447	      7.94925930	     -7.86496336	      5.01810004	      5.02526315	     31.96593121	    -17.08068624	     -7.03430674	     96.46047161	     44.70872558	      0.00000000	      0.00000000	     -8.12108646	     -6.91753958	      9.38817329	     26.01363116	     44.48162490	      0.00000000	      0.00000000
     39.31142857	     -5.49614076	     -4.15702472	      1.60603003	      0.94412223	      0.92174056	      0.47121079	      0.60649428	     -1.45950662	    -16.80890791	     25.13769918	     25.13769918	     16.59963262	      3.74886649	     -8.25396684	     27.62040583	     -4.39184742	     -1.41374468	     25.51187826	     25.51187826	      6.62476085	    -15.92287649	      7.89555456	     -7.86232210	      5.00510194	      5.01502870	     30.07834704	    -17.19804704	     -7.07211520	     94.99378756	     44.75555316	      0.00000000	      0.00000000	     -7.15601667	     -7.09828257	      9.09147750	     26.66476264	     44.55873774	      0.00000000	      0.00000000
     39.32428571	     -5.46060605	     -4.08847520	      1.57801912	      0.94469586	      0.92283520	      0.46819376	      1.16185427	     -2.13986377	    -16.47928485	     26.97169654	     26.97169654	     13.79689095	      2.38080402	    -14.75042306	     26.97326179	     -4.12957044	     -1.43812458	     25.53462668	     25.53462668	      7.37015117	    -15.97017718	      8.38320113	     -7.90876675	      5.00720096	      4.72043595	     28.37383148	    -16.73627839	     -7.71028719	     92.51295053	     44.87767528	      0.00000000	      0.00000000	     -6.44184267	     -7.27113593	      7.77034077	     28.20877183	     44.83910284	      0.00000000	      0.00000000
